<mxfile host="app.diagrams.net" modified="2024-04-20T02:16:06.830Z" agent="Mozilla/5.0 (Windows NT 10.0; Win64; x64) AppleWebKit/537.36 (KHTML, like Gecko) Chrome/121.0.0.0 Safari/537.36 OPR/107.0.0.0" etag="pMHZunVCGMNy2N4O5kwQ" version="24.2.5" type="github">
  <diagram name="Page-1" id="0Bj_ktUvIXRhCVCeadue">
    <mxGraphModel dx="1794" dy="590" grid="1" gridSize="10" guides="1" tooltips="1" connect="1" arrows="1" fold="1" page="1" pageScale="1" pageWidth="850" pageHeight="1100" math="0" shadow="0">
      <root>
        <mxCell id="0" />
        <mxCell id="1" parent="0" />
        <mxCell id="3IvRH1peFuhfsIyhSLfg-8" style="edgeStyle=orthogonalEdgeStyle;rounded=0;orthogonalLoop=1;jettySize=auto;html=1;curved=0;" edge="1" parent="1" source="3IvRH1peFuhfsIyhSLfg-1" target="3IvRH1peFuhfsIyhSLfg-5">
          <mxGeometry relative="1" as="geometry">
            <Array as="points">
              <mxPoint x="120" y="200" />
              <mxPoint x="120" y="200" />
            </Array>
          </mxGeometry>
        </mxCell>
        <mxCell id="3IvRH1peFuhfsIyhSLfg-12" value="mouseClicked(X,Y)" style="edgeLabel;html=1;align=center;verticalAlign=middle;resizable=0;points=[];" vertex="1" connectable="0" parent="3IvRH1peFuhfsIyhSLfg-8">
          <mxGeometry x="-0.1045" y="2" relative="1" as="geometry">
            <mxPoint y="-8" as="offset" />
          </mxGeometry>
        </mxCell>
        <mxCell id="3IvRH1peFuhfsIyhSLfg-1" value="" style="shape=umlLifeline;perimeter=lifelinePerimeter;whiteSpace=wrap;html=1;container=1;dropTarget=0;collapsible=0;recursiveResize=0;outlineConnect=0;portConstraint=eastwest;newEdgeStyle={&quot;curved&quot;:0,&quot;rounded&quot;:0};participant=umlActor;" vertex="1" parent="1">
          <mxGeometry x="70" y="120" width="20" height="800" as="geometry" />
        </mxCell>
        <mxCell id="3IvRH1peFuhfsIyhSLfg-3" value=":GameWorld" style="shape=umlLifeline;perimeter=lifelinePerimeter;whiteSpace=wrap;html=1;container=1;dropTarget=0;collapsible=0;recursiveResize=0;outlineConnect=0;portConstraint=eastwest;newEdgeStyle={&quot;curved&quot;:0,&quot;rounded&quot;:0};" vertex="1" parent="1">
          <mxGeometry x="425" y="120" width="100" height="800" as="geometry" />
        </mxCell>
        <mxCell id="3IvRH1peFuhfsIyhSLfg-9" value="" style="html=1;points=[[0,0,0,0,5],[0,1,0,0,-5],[1,0,0,0,5],[1,1,0,0,-5]];perimeter=orthogonalPerimeter;outlineConnect=0;targetShapes=umlLifeline;portConstraint=eastwest;newEdgeStyle={&quot;curved&quot;:0,&quot;rounded&quot;:0};" vertex="1" parent="3IvRH1peFuhfsIyhSLfg-3">
          <mxGeometry x="45" y="130" width="10" height="420" as="geometry" />
        </mxCell>
        <mxCell id="3IvRH1peFuhfsIyhSLfg-40" value="" style="html=1;points=[[0,0,0,0,5],[0,1,0,0,-5],[1,0,0,0,5],[1,1,0,0,-5]];perimeter=orthogonalPerimeter;outlineConnect=0;targetShapes=umlLifeline;portConstraint=eastwest;newEdgeStyle={&quot;curved&quot;:0,&quot;rounded&quot;:0};" vertex="1" parent="3IvRH1peFuhfsIyhSLfg-3">
          <mxGeometry x="45" y="650" width="10" height="50" as="geometry" />
        </mxCell>
        <mxCell id="3IvRH1peFuhfsIyhSLfg-4" value="&amp;lt;&amp;lt;This represents both GF scenarios and event handler&amp;gt;&amp;gt;&lt;div&gt;:GreenFoot GUI&lt;/div&gt;" style="shape=umlLifeline;perimeter=lifelinePerimeter;whiteSpace=wrap;html=1;container=1;dropTarget=0;collapsible=0;recursiveResize=0;outlineConnect=0;portConstraint=eastwest;newEdgeStyle={&quot;curved&quot;:0,&quot;rounded&quot;:0};" vertex="1" parent="1">
          <mxGeometry x="160" y="120" width="180" height="800" as="geometry" />
        </mxCell>
        <mxCell id="3IvRH1peFuhfsIyhSLfg-5" value="" style="html=1;points=[[0,0,0,0,5],[0,1,0,0,-5],[1,0,0,0,5],[1,1,0,0,-5]];perimeter=orthogonalPerimeter;outlineConnect=0;targetShapes=umlLifeline;portConstraint=eastwest;newEdgeStyle={&quot;curved&quot;:0,&quot;rounded&quot;:0};" vertex="1" parent="3IvRH1peFuhfsIyhSLfg-4">
          <mxGeometry x="85" y="60" width="10" height="690" as="geometry" />
        </mxCell>
        <mxCell id="3IvRH1peFuhfsIyhSLfg-10" style="edgeStyle=orthogonalEdgeStyle;rounded=0;orthogonalLoop=1;jettySize=auto;html=1;curved=0;" edge="1" parent="1" source="3IvRH1peFuhfsIyhSLfg-5" target="3IvRH1peFuhfsIyhSLfg-9">
          <mxGeometry relative="1" as="geometry">
            <Array as="points">
              <mxPoint x="360" y="260" />
              <mxPoint x="360" y="260" />
            </Array>
          </mxGeometry>
        </mxCell>
        <mxCell id="3IvRH1peFuhfsIyhSLfg-11" value="act()" style="edgeLabel;html=1;align=center;verticalAlign=middle;resizable=0;points=[];" vertex="1" connectable="0" parent="3IvRH1peFuhfsIyhSLfg-10">
          <mxGeometry x="0.0003" y="1" relative="1" as="geometry">
            <mxPoint y="-9" as="offset" />
          </mxGeometry>
        </mxCell>
        <mxCell id="3IvRH1peFuhfsIyhSLfg-21" value="while wave is not finished" style="shape=umlFrame;whiteSpace=wrap;html=1;pointerEvents=0;width=85;height=30;" vertex="1" parent="1">
          <mxGeometry x="110" y="225" width="750" height="515" as="geometry" />
        </mxCell>
        <mxCell id="3IvRH1peFuhfsIyhSLfg-25" value="if time for enemy to spawn" style="shape=umlFrame;whiteSpace=wrap;html=1;pointerEvents=0;width=90;height=30;" vertex="1" parent="1">
          <mxGeometry x="130" y="280" width="690" height="420" as="geometry" />
        </mxCell>
        <mxCell id="3IvRH1peFuhfsIyhSLfg-30" style="edgeStyle=orthogonalEdgeStyle;rounded=0;orthogonalLoop=1;jettySize=auto;html=1;curved=0;" edge="1" parent="1" source="3IvRH1peFuhfsIyhSLfg-26" target="3IvRH1peFuhfsIyhSLfg-29">
          <mxGeometry relative="1" as="geometry">
            <Array as="points">
              <mxPoint x="520" y="350" />
              <mxPoint x="520" y="380" />
            </Array>
          </mxGeometry>
        </mxCell>
        <mxCell id="3IvRH1peFuhfsIyhSLfg-31" value="t = findNearestTower(eX,eY)" style="edgeLabel;html=1;align=center;verticalAlign=middle;resizable=0;points=[];" vertex="1" connectable="0" parent="3IvRH1peFuhfsIyhSLfg-30">
          <mxGeometry x="0.0846" y="-2" relative="1" as="geometry">
            <mxPoint x="76" y="2" as="offset" />
          </mxGeometry>
        </mxCell>
        <mxCell id="3IvRH1peFuhfsIyhSLfg-36" style="edgeStyle=orthogonalEdgeStyle;rounded=0;orthogonalLoop=1;jettySize=auto;html=1;curved=0;" edge="1" parent="1" source="3IvRH1peFuhfsIyhSLfg-26" target="3IvRH1peFuhfsIyhSLfg-35">
          <mxGeometry relative="1" as="geometry">
            <Array as="points">
              <mxPoint x="560" y="440" />
              <mxPoint x="560" y="440" />
            </Array>
          </mxGeometry>
        </mxCell>
        <mxCell id="3IvRH1peFuhfsIyhSLfg-37" value="Enemy(t,level)" style="edgeLabel;html=1;align=center;verticalAlign=middle;resizable=0;points=[];" vertex="1" connectable="0" parent="3IvRH1peFuhfsIyhSLfg-36">
          <mxGeometry x="-0.0161" y="2" relative="1" as="geometry">
            <mxPoint x="10" y="-8" as="offset" />
          </mxGeometry>
        </mxCell>
        <mxCell id="3IvRH1peFuhfsIyhSLfg-38" style="edgeStyle=orthogonalEdgeStyle;rounded=0;orthogonalLoop=1;jettySize=auto;html=1;curved=0;" edge="1" parent="1" source="3IvRH1peFuhfsIyhSLfg-26" target="3IvRH1peFuhfsIyhSLfg-5">
          <mxGeometry relative="1" as="geometry">
            <Array as="points">
              <mxPoint x="520" y="460" />
              <mxPoint x="520" y="480" />
            </Array>
          </mxGeometry>
        </mxCell>
        <mxCell id="3IvRH1peFuhfsIyhSLfg-39" value="addObject(enemy,eX,eY)" style="edgeLabel;html=1;align=center;verticalAlign=middle;resizable=0;points=[];" vertex="1" connectable="0" parent="3IvRH1peFuhfsIyhSLfg-38">
          <mxGeometry x="0.1634" y="-1" relative="1" as="geometry">
            <mxPoint y="-9" as="offset" />
          </mxGeometry>
        </mxCell>
        <mxCell id="3IvRH1peFuhfsIyhSLfg-26" value="" style="html=1;points=[[0,0,0,0,5],[0,1,0,0,-5],[1,0,0,0,5],[1,1,0,0,-5]];perimeter=orthogonalPerimeter;outlineConnect=0;targetShapes=umlLifeline;portConstraint=eastwest;newEdgeStyle={&quot;curved&quot;:0,&quot;rounded&quot;:0};" vertex="1" parent="1">
          <mxGeometry x="480" y="320" width="10" height="310" as="geometry" />
        </mxCell>
        <mxCell id="3IvRH1peFuhfsIyhSLfg-27" style="edgeStyle=orthogonalEdgeStyle;rounded=0;orthogonalLoop=1;jettySize=auto;html=1;curved=0;" edge="1" parent="1" source="3IvRH1peFuhfsIyhSLfg-9" target="3IvRH1peFuhfsIyhSLfg-26">
          <mxGeometry relative="1" as="geometry">
            <Array as="points">
              <mxPoint x="520" y="300" />
              <mxPoint x="520" y="330" />
            </Array>
          </mxGeometry>
        </mxCell>
        <mxCell id="3IvRH1peFuhfsIyhSLfg-28" value="spawnEnemy()" style="edgeLabel;html=1;align=center;verticalAlign=middle;resizable=0;points=[];" vertex="1" connectable="0" parent="3IvRH1peFuhfsIyhSLfg-27">
          <mxGeometry x="0.0745" relative="1" as="geometry">
            <mxPoint x="40" y="-4" as="offset" />
          </mxGeometry>
        </mxCell>
        <mxCell id="3IvRH1peFuhfsIyhSLfg-29" value="" style="html=1;points=[[0,0,0,0,5],[0,1,0,0,-5],[1,0,0,0,5],[1,1,0,0,-5]];perimeter=orthogonalPerimeter;outlineConnect=0;targetShapes=umlLifeline;portConstraint=eastwest;newEdgeStyle={&quot;curved&quot;:0,&quot;rounded&quot;:0};" vertex="1" parent="1">
          <mxGeometry x="490" y="365" width="10" height="35" as="geometry" />
        </mxCell>
        <mxCell id="3IvRH1peFuhfsIyhSLfg-34" value="enemy:Enemy" style="shape=umlLifeline;perimeter=lifelinePerimeter;whiteSpace=wrap;html=1;container=1;dropTarget=0;collapsible=0;recursiveResize=0;outlineConnect=0;portConstraint=eastwest;newEdgeStyle={&quot;curved&quot;:0,&quot;rounded&quot;:0};" vertex="1" parent="1">
          <mxGeometry x="710" y="360" width="100" height="560" as="geometry" />
        </mxCell>
        <mxCell id="3IvRH1peFuhfsIyhSLfg-35" value="" style="html=1;points=[[0,0,0,0,5],[0,1,0,0,-5],[1,0,0,0,5],[1,1,0,0,-5]];perimeter=orthogonalPerimeter;outlineConnect=0;targetShapes=umlLifeline;portConstraint=eastwest;newEdgeStyle={&quot;curved&quot;:0,&quot;rounded&quot;:0};" vertex="1" parent="3IvRH1peFuhfsIyhSLfg-34">
          <mxGeometry x="45" y="70" width="10" height="30" as="geometry" />
        </mxCell>
        <mxCell id="3IvRH1peFuhfsIyhSLfg-41" style="edgeStyle=orthogonalEdgeStyle;rounded=0;orthogonalLoop=1;jettySize=auto;html=1;curved=0;" edge="1" parent="1" source="3IvRH1peFuhfsIyhSLfg-5" target="3IvRH1peFuhfsIyhSLfg-40">
          <mxGeometry relative="1" as="geometry">
            <Array as="points">
              <mxPoint x="310" y="780" />
              <mxPoint x="310" y="780" />
            </Array>
          </mxGeometry>
        </mxCell>
        <mxCell id="3IvRH1peFuhfsIyhSLfg-42" value="act()" style="edgeLabel;html=1;align=center;verticalAlign=middle;resizable=0;points=[];" vertex="1" connectable="0" parent="3IvRH1peFuhfsIyhSLfg-41">
          <mxGeometry x="-0.0667" y="4" relative="1" as="geometry">
            <mxPoint y="-6" as="offset" />
          </mxGeometry>
        </mxCell>
        <mxCell id="3IvRH1peFuhfsIyhSLfg-43" style="edgeStyle=orthogonalEdgeStyle;rounded=0;orthogonalLoop=1;jettySize=auto;html=1;curved=0;" edge="1" parent="1" source="3IvRH1peFuhfsIyhSLfg-40" target="3IvRH1peFuhfsIyhSLfg-5">
          <mxGeometry relative="1" as="geometry">
            <mxPoint x="400" y="830" as="targetPoint" />
            <Array as="points">
              <mxPoint x="420" y="810" />
              <mxPoint x="420" y="810" />
            </Array>
          </mxGeometry>
        </mxCell>
        <mxCell id="3IvRH1peFuhfsIyhSLfg-44" value="showText(&quot;Wave Completed&quot;,tX,tY)" style="edgeLabel;html=1;align=center;verticalAlign=middle;resizable=0;points=[];" vertex="1" connectable="0" parent="3IvRH1peFuhfsIyhSLfg-43">
          <mxGeometry x="0.7527" y="4" relative="1" as="geometry">
            <mxPoint x="78" y="-14" as="offset" />
          </mxGeometry>
        </mxCell>
        <mxCell id="3IvRH1peFuhfsIyhSLfg-45" style="edgeStyle=orthogonalEdgeStyle;rounded=0;orthogonalLoop=1;jettySize=auto;html=1;curved=0;" edge="1" parent="1" source="3IvRH1peFuhfsIyhSLfg-5" target="3IvRH1peFuhfsIyhSLfg-1">
          <mxGeometry relative="1" as="geometry">
            <Array as="points">
              <mxPoint x="160" y="840" />
              <mxPoint x="160" y="840" />
            </Array>
          </mxGeometry>
        </mxCell>
        <mxCell id="3IvRH1peFuhfsIyhSLfg-46" value="sees text that&amp;nbsp;&lt;div&gt;wave is completed&lt;/div&gt;" style="edgeLabel;html=1;align=center;verticalAlign=middle;resizable=0;points=[];" vertex="1" connectable="0" parent="3IvRH1peFuhfsIyhSLfg-45">
          <mxGeometry x="0.0291" y="-1" relative="1" as="geometry">
            <mxPoint y="-19" as="offset" />
          </mxGeometry>
        </mxCell>
      </root>
    </mxGraphModel>
  </diagram>
</mxfile>
